<svg height="20" viewBox="0 0 447.63 447" width="20" fill="#219ebc" xmlns="http://www.w3.org/2000/svg"><path d="M231.82 447.05c34.23-4.86 64.23-40.59 83.12-93.35a406.32 406.32 0 00-83.12-9.79zm0 0M286.5 438.66c2.03-.59 4.04-1.18 6.04-1.82 1.69-.55 3.35-1.13 5.02-1.71a203.4 203.4 0 005.88-2.13c1.67-.63 3.31-1.3 4.97-1.97l5.69-2.4a240.4 240.4 0 0010.42-4.92 282.15 282.15 0 0010.14-5.46c1.6-.9 3.15-1.81 4.7-2.75 1.74-1.07 3.47-2.13 5.18-3.2a191.54 191.54 0 009.59-6.5 417.7 417.7 0 004.42-3.2c1.6-1.23 3.24-2.5 4.85-3.79 1.42-1.13 2.85-2.26 4.25-3.43 1.6-1.33 3.13-2.7 4.68-4.08 1.36-1.2 2.72-2.4 4.05-3.64 1.53-1.43 3.02-2.9 4.5-4.37 1.3-1.27 2.6-2.52 3.86-3.83.24-.24.46-.5.7-.75a268.88 268.88 0 00-54.82-21.1 198.52 198.52 0 01-51.12 83.03c.64-.17 1.3-.3 1.94-.48 1.71-.48 3.4-1 5.06-1.5zm0 0M447.63 231.68h-95.92a414.88 414.88 0 01-16.15 110.68 278.23 278.23 0 0160.71 24.16 223.51 223.51 0 0051.36-134.84zm0 0M231.82 215.68h103.9a400.2 400.2 0 00-15.76-106.74 421.38 421.38 0 01-88.14 10.51zm0 0M231.82.32v103.13c27.97-.4 55.82-3.67 83.12-9.78C296.05 40.9 266.04 5.18 231.82.32zm0 0M231.82 327.91c29.66.4 59.21 3.92 88.14 10.52a400.24 400.24 0 0015.75-106.75h-103.9zm0 0M396.27 80.84A278.23 278.23 0 01335.56 105a414.88 414.88 0 0116.15 110.68h95.92a223.58 223.58 0 00-51.36-134.84zm0 0M385.46 68.7c-.23-.23-.45-.49-.68-.74-1.27-1.3-2.58-2.56-3.87-3.83-1.48-1.46-2.96-2.94-4.5-4.36-1.32-1.24-2.7-2.4-4.05-3.64-1.55-1.37-3.1-2.76-4.7-4.09-1.38-1.16-2.8-2.28-4.2-3.4a171.24 171.24 0 00-9.28-7.03 192.84 192.84 0 00-14.8-9.76 223.26 223.26 0 00-10.06-5.7c-1.6-.81-3.2-1.68-4.8-2.48-1.84-.93-3.7-1.83-5.6-2.7-1.6-.77-3.22-1.5-4.87-2.23-1.9-.84-3.81-1.6-5.72-2.4a191.21 191.21 0 00-10.83-4.09c-1.67-.58-3.33-1.16-5.02-1.71-2-.65-4-1.24-6.05-1.83-1.67-.5-3.34-.99-5.02-1.43-.65-.18-1.3-.32-1.95-.48a198.53 198.53 0 0151.13 83.02c19-5 37.41-12.09 54.87-21.11zm0 0M0 215.68h95.92c.37-37.45 5.8-74.68 16.15-110.68a277.88 277.88 0 01-60.71-24.16A223.52 223.52 0 000 215.68zm0 0M215.82 447.05V343.91c-27.97.4-55.83 3.68-83.12 9.79 18.87 52.76 48.89 88.49 83.12 93.35zm0 0M215.82 231.68h-103.9c.4 36.13 5.7 72.04 15.75 106.75a421.1 421.1 0 0188.15-10.52zm0 0M215.82.32c-34.23 4.86-64.25 40.59-83.12 93.35 27.3 6.12 55.15 9.4 83.12 9.78zm0 0M215.82 119.45a421.38 421.38 0 01-88.15-10.5 400.05 400.05 0 00-15.75 106.73h103.9zm0 0M168.11 6.79c-.65.17-1.3.3-1.94.47-1.7.45-3.37.96-5.06 1.45-2 .58-4 1.17-6.01 1.81-1.7.55-3.37 1.14-5.05 1.72-1.95.7-3.91 1.38-5.85 2.12-1.67.64-3.32 1.3-4.98 1.98l-5.68 2.4a231.13 231.13 0 00-25.28 13.13c-1.74 1.04-3.46 2.13-5.17 3.2a209.55 209.55 0 00-9.59 6.5 403.61 403.61 0 00-4.42 3.2c-1.64 1.23-3.2 2.52-4.85 3.8-1.42 1.13-2.86 2.26-4.25 3.43-1.6 1.32-3.12 2.7-4.66 4.06-1.37 1.22-2.75 2.4-4.08 3.66-1.52 1.42-3 2.9-4.49 4.35-1.29 1.28-2.6 2.54-3.86 3.84l-.7.76a268.58 268.58 0 0054.82 21.1c9.87-31.48 27.44-60 51.1-82.98zm0 0M66.72 383.23c1.49 1.47 2.97 2.95 4.5 4.38 1.32 1.23 2.69 2.4 4.05 3.62 1.55 1.38 3.1 2.77 4.7 4.1 1.38 1.15 2.8 2.28 4.2 3.4 1.6 1.3 3.2 2.59 4.9 3.83 1.44 1.08 2.9 2.13 4.37 3.2 1.67 1.2 3.36 2.4 5.06 3.56 1.5 1 3.02 1.99 4.54 2.96a200.33 200.33 0 009.88 5.98c1.8 1.03 3.58 2.02 5.4 2.98 1.59.8 3.2 1.67 4.8 2.47a215.87 215.87 0 0010.47 4.93c1.89.84 3.8 1.6 5.71 2.4a181.5 181.5 0 0010.83 4.09c1.67.58 3.33 1.17 5.02 1.71 2 .65 4 1.25 6.06 1.84 1.66.48 3.33.98 5.01 1.43.65.18 1.3.31 1.96.48a198.57 198.57 0 01-51.13-83.03 268.6 268.6 0 00-54.82 21.1l.7.75c1.2 1.3 2.48 2.55 3.79 3.82zm0 0M51.36 366.52a278.28 278.28 0 0160.71-24.16 415.03 415.03 0 01-16.15-110.68H0a223.55 223.55 0 0051.36 134.84zm0 0"/></svg>